<?xml version="1.0" encoding="utf-8"?>
<!-- Generator: Adobe Illustrator 22.0.1, SVG Export Plug-In . SVG Version: 6.00 Build 0)  -->
<svg version="1.1" id="Ebene_1" xmlns="http://www.w3.org/2000/svg" xmlns:xlink="http://www.w3.org/1999/xlink" x="0px" y="0px"
	 viewBox="0 0 1234.9 244.7" style="enable-background:new 0 0 1234.9 244.7;" xml:space="preserve">
<style type="text/css">
	.st0{fill:#C8CAC4;}
	.st1{fill:#1FB56F;}
	.st2{fill:#F9CB31;}
</style>
<g>
	<g>
		<ellipse class="st0" cx="183.5" cy="232.7" rx="60.2" ry="12"/>
		<path class="st1" d="M0,0c0,0,74.3,155.5,154.2,176s128.1-32.5,132.9-42.1c0,0-81.9,0-154.2-43.4S0,0,0,0z"/>
		<path class="st2" d="M293.4,124.3c0,0,48.2-67.5,57.8-91.5c-24.1,19.3-115.6,77.1-159,72.3c16.4,5.9,45.3,12.5,49.1,13.5
			S274.1,124.3,293.4,124.3z"/>
	</g>
	<g>
		<path d="M433.8,188.1v-155c0-2.8,1.3-5,4-6.7c2.7-1.7,6.3-2.5,10.8-2.5c4.2,0,7.7,0.8,10.6,2.5c2.9,1.7,4.4,3.9,4.4,6.7V104
			c2.3-5,6-9.2,11.1-12.6c5.1-3.4,11.1-5.1,18-5.1c10.6,0,19.9,4.6,27.9,13.9c7.9,9.3,11.9,20.3,11.9,33.1v54.8
			c0,2.9-1.5,5.2-4.5,6.9c-3,1.7-6.5,2.5-10.5,2.5c-3.9,0-7.3-0.8-10.3-2.5c-3-1.7-4.5-4-4.5-6.9v-54.7c0-5.2-2-10-6-14.3
			c-4-4.3-8.7-6.5-14.1-6.5c-5.1,0-9.5,1.9-13.3,5.8c-3.8,3.8-5.7,8.8-5.7,15v54.7c0,2.3-1.5,4.5-4.5,6.5c-3,2-6.5,3-10.5,3
			c-4.2,0-7.7-1-10.5-2.9C435.2,192.7,433.8,190.5,433.8,188.1z"/>
		<path d="M548.3,167.9c0-12.1,4.6-20.7,13.9-25.6c9.3-4.9,22.6-7.4,40-7.4h9.5v-3.1c0-5.9-1.7-11-5-15.3c-3.3-4.4-8.4-6.5-15.4-6.5
			c-6.9,0-12.9,1.3-17.8,3.9c-4.9,2.6-7.8,3.9-8.6,3.9c-3.1,0-5.6-1.5-7.4-4.6c-1.9-3.1-2.8-6.5-2.8-10.2c0-4.5,4-8.4,11.9-11.7
			c7.9-3.3,16.3-5,25.1-5c16.8,0,29.3,4.3,37.5,12.8c8.2,8.6,12.3,19.3,12.3,32.3v56.7c0,2.6-1.4,4.9-4.2,6.7
			c-2.8,1.9-6.2,2.8-10.4,2.8c-3.9,0-7.1-1-9.6-3c-2.5-2-3.8-4.4-3.8-7.2v-7.2c-10.6,12.9-22.4,19.4-35.2,19.4
			c-8.8,0-16-2.7-21.6-8.1C551.1,186.1,548.3,178.2,548.3,167.9z M578.1,164.2c0,4,1.1,6.9,3.4,8.9c2.2,2,5.2,3,8.9,3
			c4.9,0,9.7-2.2,14.3-6.6c4.6-4.4,6.9-9.2,6.9-14.5v-4.6h-3.5c-9.4,0-16.8,0.9-22.1,2.7C580.8,154.9,578.1,158.6,578.1,164.2z"/>
		<path d="M663.7,188.1V96.9c0-2.8,1.3-5,4-6.7c2.7-1.7,6.3-2.5,10.8-2.5c3.7,0,6.8,0.9,9.4,2.6c2.5,1.7,3.8,4,3.8,6.8v7
			c6.6-11.8,16.8-17.7,30.5-17.7c6.5,0,12.3,2.1,17.5,6.4c5.2,4.3,9,9.9,11.4,16.9c3.9-7.6,8.9-13.4,15.1-17.4c6.2-4,12.8-6,19.8-6
			c11.1,0,20.7,4.2,28.9,12.7c8.2,8.5,12.3,19.9,12.3,34.2v54.8c0,2.3-1.5,4.5-4.5,6.5c-3,2-6.5,3-10.5,3c-3.9,0-7.3-1-10.3-3
			c-3-2-4.5-4.2-4.5-6.5v-54.7c0-6.5-1.8-11.6-5.6-15.3c-3.7-3.8-8.1-5.7-13.2-5.7c-4.9,0-9.2,1.9-12.8,5.7
			c-3.6,3.8-5.4,8.8-5.4,15.1v55.1c0,3.1-1.5,5.4-4.4,6.9c-2.9,1.5-6.5,2.3-10.6,2.3c-3.9,0-7.3-0.8-10.3-2.4
			c-3-1.6-4.5-3.9-4.5-6.8v-54.9c0-6.1-1.9-11.1-5.7-15c-3.8-3.8-8.2-5.8-13.3-5.8c-4.9,0-9.2,1.8-12.7,5.5
			c-3.5,3.7-5.3,8.8-5.3,15.2v54.7c0,2.3-1.5,4.5-4.5,6.5c-3,2-6.5,3-10.5,3c-4.2,0-7.7-1-10.5-2.9
			C665.1,192.7,663.7,190.5,663.7,188.1z"/>
		<path d="M849.4,188.1V96.9c0-2.8,1.3-5,4-6.7c2.7-1.7,6.3-2.5,10.8-2.5c3.7,0,6.8,0.9,9.4,2.6c2.5,1.7,3.8,4,3.8,6.8v7
			c6.6-11.8,16.8-17.7,30.5-17.7c6.5,0,12.3,2.1,17.5,6.4c5.2,4.3,9,9.9,11.4,16.9c3.9-7.6,8.9-13.4,15.1-17.4c6.2-4,12.8-6,19.8-6
			c11.1,0,20.7,4.2,28.9,12.7c8.2,8.5,12.3,19.9,12.3,34.2v54.8c0,2.3-1.5,4.5-4.5,6.5c-3,2-6.5,3-10.5,3c-3.9,0-7.3-1-10.3-3
			c-3-2-4.5-4.2-4.5-6.5v-54.7c0-6.5-1.9-11.6-5.6-15.3c-3.7-3.8-8.1-5.7-13.2-5.7c-4.9,0-9.2,1.9-12.8,5.7
			c-3.6,3.8-5.4,8.8-5.4,15.1v55.1c0,3.1-1.5,5.4-4.4,6.9c-2.9,1.5-6.5,2.3-10.6,2.3c-3.9,0-7.3-0.8-10.3-2.4
			c-3-1.6-4.5-3.9-4.5-6.8v-54.9c0-6.1-1.9-11.1-5.7-15c-3.8-3.8-8.2-5.8-13.3-5.8c-4.9,0-9.2,1.8-12.7,5.5
			c-3.5,3.7-5.3,8.8-5.3,15.2v54.7c0,2.3-1.5,4.5-4.5,6.5c-3,2-6.5,3-10.5,3c-4.2,0-7.7-1-10.5-2.9
			C850.8,192.7,849.4,190.5,849.4,188.1z"/>
		<path d="M1030.9,152.2v-19c0-12.6,4.9-23.6,14.8-33c9.9-9.3,21.7-14,35.4-14c13.4,0,25.1,4.6,35.2,13.9c10,9.3,15,20.3,15,33.1v19
			c0,12.5-5,23.5-15,33.1c-10,9.6-21.7,14.3-35.2,14.3c-13.4,0-25.1-4.8-35.2-14.3C1036,175.7,1030.9,164.7,1030.9,152.2z
			 M1060.8,152.1c0,5.5,2,10.4,6,14.7c4,4.3,8.8,6.4,14.3,6.4c5.4,0,10.1-2.1,14.2-6.4c4.1-4.3,6.1-9.2,6.1-14.7v-18.8
			c0-5.2-2-9.9-6.1-14.2c-4.1-4.3-8.8-6.4-14.2-6.4c-5.6,0-10.3,2.1-14.3,6.3c-4,4.2-6,9-6,14.3V152.1z"/>
		<path d="M1146.6,152.2v-18.5c0-14.2,4.2-25.6,12.5-34.3c8.3-8.7,20.8-13.1,37.5-13.1c10.5,0,19.3,1.9,26.4,5.6
			c7.1,3.7,10.6,7.9,10.6,12.5c0,3.2-1.2,6.5-3.5,9.7c-2.3,3.2-5.1,4.9-8.3,4.9c-0.9,0-3.7-1-8.2-3.1c-4.5-2.1-9.4-3.1-14.7-3.1
			c-15,0-22.4,7-22.4,21.1v18.4c0,14.1,7.6,21.1,22.7,21.1c5.2,0,10.1-1.1,14.6-3.4c4.5-2.2,7.3-3.4,8.6-3.4c3.7,0,6.7,1.5,9.1,4.6
			c2.4,3.1,3.6,6.2,3.6,9.5c0,4.8-3.7,9.1-11.2,13.1c-7.5,3.9-16.5,5.9-26.9,5.9c-16.8,0-29.4-4.3-37.7-13
			C1150.7,178,1146.6,166.5,1146.6,152.2z"/>
	</g>
</g>
</svg>
